<svg xmlns="http://www.w3.org/2000/svg" width="332" height="65" viewBox="0 0 332 65" fill="none">
<path d="M19.9223 64.9328C9.81048 64.9328 3.18086 61.0482 0 53.2455L11.3507 48.8251C12.9244 52.7432 15.9379 54.719 20.4246 54.719C22.2661 54.719 23.7394 54.3506 24.8108 53.5803C25.8823 52.8436 26.4179 51.9059 26.4179 50.8008C26.4179 49.8296 25.6812 49.0596 24.2415 48.4903C22.8017 47.9545 20.6589 47.4186 17.8463 46.8828C17.545 46.8158 17.3105 46.7824 17.1431 46.7824C14.8998 46.3806 12.9579 45.9117 11.3507 45.3425C9.74352 44.8066 8.10283 44.0363 6.49566 43.0986C4.88848 42.161 3.64971 40.855 2.81264 39.2141C1.97557 37.5732 1.57379 35.6643 1.57379 33.4541C1.57379 29.7035 3.2479 26.4886 6.56269 23.8096C9.87748 21.1306 14.1298 19.8246 19.3196 19.858C28.0921 19.858 34.2193 23.2068 37.6681 29.9044L27.188 34.3248C25.9156 31.1435 23.2705 29.5696 19.219 29.5696C17.3775 29.5696 15.9712 29.9044 15.0337 30.5742C14.0962 31.244 13.594 32.0812 13.594 33.1193C13.594 34.057 14.1967 34.7602 15.469 35.2291C16.7079 35.7314 19.0852 36.3006 22.6008 37.0038C24.7772 37.4726 26.6857 37.9415 28.2259 38.4773C29.7996 39.0131 31.4068 39.75 33.0809 40.7211C34.7551 41.6923 36.0275 43.0318 36.9315 44.6727C37.8356 46.3136 38.2707 48.2223 38.2707 50.4325C38.2707 54.0826 36.6635 57.3979 33.4157 60.4453C30.1679 63.4592 25.6813 64.9662 19.9223 64.8992V64.9328Z" fill="#ffffff"/>
<path d="M43.0254 16.4427V4.58789H54.8782V16.4427H43.0254ZM43.0254 64.0623V20.7626H54.8782V64.0623H43.0254Z" fill="#ffffff"/>
<path d="M60.5032 64.0612V53.5126L83.2714 31.2766H60.4697V20.7949H99.1757V31.444L76.4075 53.613H99.611V64.0947H60.4697L60.5032 64.0612Z" fill="#ffffff"/>
<path d="M123.351 64.9338C116.721 64.9338 111.23 62.757 106.944 58.4371C102.658 54.1172 100.482 48.759 100.482 42.4298C100.482 36.1006 102.658 30.8767 107.078 26.4898C111.498 22.1029 116.788 19.8926 123.016 19.8926C129.244 19.8926 134.902 22.0358 139.088 26.3557C143.273 30.6421 145.349 35.9668 145.349 42.3295V46.6493H111.933C112.636 49.0604 113.942 51.0028 115.917 52.4093C117.893 53.8158 120.404 54.5191 123.451 54.5191C125.828 54.5191 127.938 53.9162 129.813 52.7106C131.688 51.505 133.127 49.8642 134.098 47.788L143.541 53.4139C141.565 56.9301 138.887 59.7432 135.438 61.8194C131.989 63.8957 127.971 64.9338 123.351 64.9338ZM123.083 30.3072C120.672 30.3072 118.496 30.9435 116.621 32.1826C114.746 33.4216 113.339 35.0962 112.435 37.1724H133.395C131.822 32.6181 128.407 30.3072 123.083 30.3072Z" fill="#ffffff"/>
<path d="M195.64 64.0622L190.718 59.2065C185.36 63.0911 179.735 65 173.842 65C169.456 65 165.572 64.3971 162.257 63.1915C158.909 61.986 156.297 60.3452 154.422 58.3024C152.547 56.2597 151.175 54.0494 150.271 51.7052C149.367 49.3611 148.931 46.9165 148.931 44.4049C148.931 36.9036 152.581 31.0097 159.847 26.7567C157.871 23.5419 156.9 20.0593 156.9 16.3756C156.9 11.6873 158.641 7.80275 162.09 4.68838C165.539 1.57401 169.892 0 175.081 0C184.59 0 190.818 3.98508 193.698 11.9552L181.912 16.1076C180.874 12.5244 178.731 10.7497 175.516 10.7497C173.775 10.7497 172.369 11.2854 171.231 12.357C170.092 13.4286 169.557 14.7682 169.557 16.3756C169.557 18.6863 170.159 20.6621 171.331 22.2695C172.503 23.8769 175.416 27.0581 180.037 31.7799L191.722 43.5677C194.133 40.1185 195.807 36.3343 196.745 32.2153H186.097V20.796H208.698V26.3214C208.698 30.2395 207.861 34.3921 206.187 38.779C204.513 43.1659 202.202 47.2515 199.256 51.0021L212.147 64.0622H195.707H195.64ZM173.742 54.4513C177.023 54.4513 180.137 53.5471 183.084 51.7723L170.025 38.511L166.577 35.0619C162.76 37.3725 160.851 40.4533 160.851 44.3379C160.851 47.1508 161.989 49.562 164.266 51.5378C166.543 53.5136 169.691 54.4848 173.742 54.4848V54.4513Z" fill="#ffffff"/>
<path d="M214.958 64.063V20.7633H226.744V25.3511C229.624 21.7009 233.475 19.8926 238.263 19.8926C244.49 19.8926 248.943 22.1699 251.589 26.7242C254.836 22.1699 259.323 19.8926 265.082 19.8926C270.506 19.8926 274.591 21.433 277.37 24.5139C280.149 27.5948 281.522 31.9816 281.522 37.6411V64.063H269.502V39.2151C269.502 33.0868 266.991 30.0395 261.968 30.0395C259.591 30.0395 257.716 30.9101 256.31 32.6514C254.903 34.3928 254.2 36.9714 254.2 40.4542V64.0966H242.18V39.2486C242.18 33.1204 239.669 30.073 234.646 30.073C232.269 30.073 230.394 30.9436 228.988 32.685C227.581 34.4263 226.878 37.0049 226.878 40.4877V64.1301H215.026L214.958 64.063Z" fill="#ffffff"/>
<path d="M309.147 64.9338C302.517 64.9338 297.026 62.757 292.74 58.4371C288.455 54.1172 286.278 48.759 286.278 42.4298C286.278 36.1006 288.455 30.8767 292.875 26.4898C297.294 22.1029 302.584 19.8926 308.812 19.8926C315.04 19.8926 320.699 22.0358 324.884 26.3557C329.069 30.6421 331.145 35.9668 331.145 42.3295V46.6493H297.729C298.432 49.0604 299.738 51.0028 301.714 52.4093C303.689 53.8158 306.2 54.5191 309.247 54.5191C311.625 54.5191 313.734 53.9162 315.609 52.7106C317.484 51.505 318.924 49.8642 319.895 47.788L329.337 53.4139C327.362 56.9301 324.683 59.7432 321.234 61.8194C317.786 63.8957 313.768 64.9338 309.147 64.9338ZM308.879 30.3072C306.468 30.3072 304.292 30.9435 302.417 32.1826C300.542 33.4216 299.136 35.0962 298.232 37.1724H319.192C317.618 32.6181 314.203 30.3072 308.879 30.3072Z" fill="#ffffff"/>
</svg>